<?xml version="1.0" encoding="utf-8"?>
<svg width="456" height="456" viewBox="0 0 456 456"
		 xmlns="http://www.w3.org/2000/svg" xmlns:xlink="http://www.w3.org/1999/xlink" xmlns:ev="http://www.w3.org/2001/xml-events">
<rect x="0" y="0" width="456" height="456" fill="#ffffff"/>
<defs>
<rect id="p" width="8" height="8"/>
</defs>
<g fill="#000000">
<use xlink:href="#p" x="32" y="32"/>
<use xlink:href="#p" x="32" y="40"/>
<use xlink:href="#p" x="32" y="48"/>
<use xlink:href="#p" x="32" y="56"/>
<use xlink:href="#p" x="32" y="64"/>
<use xlink:href="#p" x="32" y="72"/>
<use xlink:href="#p" x="32" y="80"/>
<use xlink:href="#p" x="32" y="104"/>
<use xlink:href="#p" x="32" y="152"/>
<use xlink:href="#p" x="32" y="176"/>
<use xlink:href="#p" x="32" y="200"/>
<use xlink:href="#p" x="32" y="256"/>
<use xlink:href="#p" x="32" y="272"/>
<use xlink:href="#p" x="32" y="280"/>
<use xlink:href="#p" x="32" y="296"/>
<use xlink:href="#p" x="32" y="304"/>
<use xlink:href="#p" x="32" y="312"/>
<use xlink:href="#p" x="32" y="352"/>
<use xlink:href="#p" x="32" y="368"/>
<use xlink:href="#p" x="32" y="376"/>
<use xlink:href="#p" x="32" y="384"/>
<use xlink:href="#p" x="32" y="392"/>
<use xlink:href="#p" x="32" y="400"/>
<use xlink:href="#p" x="32" y="408"/>
<use xlink:href="#p" x="32" y="416"/>
<use xlink:href="#p" x="40" y="32"/>
<use xlink:href="#p" x="40" y="80"/>
<use xlink:href="#p" x="40" y="96"/>
<use xlink:href="#p" x="40" y="112"/>
<use xlink:href="#p" x="40" y="128"/>
<use xlink:href="#p" x="40" y="144"/>
<use xlink:href="#p" x="40" y="152"/>
<use xlink:href="#p" x="40" y="160"/>
<use xlink:href="#p" x="40" y="168"/>
<use xlink:href="#p" x="40" y="184"/>
<use xlink:href="#p" x="40" y="208"/>
<use xlink:href="#p" x="40" y="216"/>
<use xlink:href="#p" x="40" y="224"/>
<use xlink:href="#p" x="40" y="240"/>
<use xlink:href="#p" x="40" y="248"/>
<use xlink:href="#p" x="40" y="264"/>
<use xlink:href="#p" x="40" y="272"/>
<use xlink:href="#p" x="40" y="280"/>
<use xlink:href="#p" x="40" y="328"/>
<use xlink:href="#p" x="40" y="336"/>
<use xlink:href="#p" x="40" y="344"/>
<use xlink:href="#p" x="40" y="352"/>
<use xlink:href="#p" x="40" y="368"/>
<use xlink:href="#p" x="40" y="416"/>
<use xlink:href="#p" x="48" y="32"/>
<use xlink:href="#p" x="48" y="48"/>
<use xlink:href="#p" x="48" y="56"/>
<use xlink:href="#p" x="48" y="64"/>
<use xlink:href="#p" x="48" y="80"/>
<use xlink:href="#p" x="48" y="120"/>
<use xlink:href="#p" x="48" y="128"/>
<use xlink:href="#p" x="48" y="136"/>
<use xlink:href="#p" x="48" y="152"/>
<use xlink:href="#p" x="48" y="168"/>
<use xlink:href="#p" x="48" y="200"/>
<use xlink:href="#p" x="48" y="224"/>
<use xlink:href="#p" x="48" y="240"/>
<use xlink:href="#p" x="48" y="256"/>
<use xlink:href="#p" x="48" y="280"/>
<use xlink:href="#p" x="48" y="312"/>
<use xlink:href="#p" x="48" y="320"/>
<use xlink:href="#p" x="48" y="328"/>
<use xlink:href="#p" x="48" y="344"/>
<use xlink:href="#p" x="48" y="352"/>
<use xlink:href="#p" x="48" y="368"/>
<use xlink:href="#p" x="48" y="384"/>
<use xlink:href="#p" x="48" y="392"/>
<use xlink:href="#p" x="48" y="400"/>
<use xlink:href="#p" x="48" y="416"/>
<use xlink:href="#p" x="56" y="32"/>
<use xlink:href="#p" x="56" y="48"/>
<use xlink:href="#p" x="56" y="56"/>
<use xlink:href="#p" x="56" y="64"/>
<use xlink:href="#p" x="56" y="80"/>
<use xlink:href="#p" x="56" y="104"/>
<use xlink:href="#p" x="56" y="144"/>
<use xlink:href="#p" x="56" y="176"/>
<use xlink:href="#p" x="56" y="192"/>
<use xlink:href="#p" x="56" y="208"/>
<use xlink:href="#p" x="56" y="224"/>
<use xlink:href="#p" x="56" y="232"/>
<use xlink:href="#p" x="56" y="248"/>
<use xlink:href="#p" x="56" y="288"/>
<use xlink:href="#p" x="56" y="296"/>
<use xlink:href="#p" x="56" y="304"/>
<use xlink:href="#p" x="56" y="312"/>
<use xlink:href="#p" x="56" y="320"/>
<use xlink:href="#p" x="56" y="328"/>
<use xlink:href="#p" x="56" y="344"/>
<use xlink:href="#p" x="56" y="368"/>
<use xlink:href="#p" x="56" y="384"/>
<use xlink:href="#p" x="56" y="392"/>
<use xlink:href="#p" x="56" y="400"/>
<use xlink:href="#p" x="56" y="416"/>
<use xlink:href="#p" x="64" y="32"/>
<use xlink:href="#p" x="64" y="48"/>
<use xlink:href="#p" x="64" y="56"/>
<use xlink:href="#p" x="64" y="64"/>
<use xlink:href="#p" x="64" y="80"/>
<use xlink:href="#p" x="64" y="104"/>
<use xlink:href="#p" x="64" y="112"/>
<use xlink:href="#p" x="64" y="128"/>
<use xlink:href="#p" x="64" y="136"/>
<use xlink:href="#p" x="64" y="144"/>
<use xlink:href="#p" x="64" y="152"/>
<use xlink:href="#p" x="64" y="160"/>
<use xlink:href="#p" x="64" y="184"/>
<use xlink:href="#p" x="64" y="192"/>
<use xlink:href="#p" x="64" y="200"/>
<use xlink:href="#p" x="64" y="208"/>
<use xlink:href="#p" x="64" y="216"/>
<use xlink:href="#p" x="64" y="224"/>
<use xlink:href="#p" x="64" y="232"/>
<use xlink:href="#p" x="64" y="240"/>
<use xlink:href="#p" x="64" y="248"/>
<use xlink:href="#p" x="64" y="256"/>
<use xlink:href="#p" x="64" y="264"/>
<use xlink:href="#p" x="64" y="272"/>
<use xlink:href="#p" x="64" y="280"/>
<use xlink:href="#p" x="64" y="288"/>
<use xlink:href="#p" x="64" y="296"/>
<use xlink:href="#p" x="64" y="312"/>
<use xlink:href="#p" x="64" y="320"/>
<use xlink:href="#p" x="64" y="328"/>
<use xlink:href="#p" x="64" y="368"/>
<use xlink:href="#p" x="64" y="384"/>
<use xlink:href="#p" x="64" y="392"/>
<use xlink:href="#p" x="64" y="400"/>
<use xlink:href="#p" x="64" y="416"/>
<use xlink:href="#p" x="72" y="32"/>
<use xlink:href="#p" x="72" y="80"/>
<use xlink:href="#p" x="72" y="120"/>
<use xlink:href="#p" x="72" y="176"/>
<use xlink:href="#p" x="72" y="200"/>
<use xlink:href="#p" x="72" y="208"/>
<use xlink:href="#p" x="72" y="240"/>
<use xlink:href="#p" x="72" y="248"/>
<use xlink:href="#p" x="72" y="264"/>
<use xlink:href="#p" x="72" y="304"/>
<use xlink:href="#p" x="72" y="312"/>
<use xlink:href="#p" x="72" y="328"/>
<use xlink:href="#p" x="72" y="336"/>
<use xlink:href="#p" x="72" y="368"/>
<use xlink:href="#p" x="72" y="416"/>
<use xlink:href="#p" x="80" y="32"/>
<use xlink:href="#p" x="80" y="40"/>
<use xlink:href="#p" x="80" y="48"/>
<use xlink:href="#p" x="80" y="56"/>
<use xlink:href="#p" x="80" y="64"/>
<use xlink:href="#p" x="80" y="72"/>
<use xlink:href="#p" x="80" y="80"/>
<use xlink:href="#p" x="80" y="96"/>
<use xlink:href="#p" x="80" y="112"/>
<use xlink:href="#p" x="80" y="128"/>
<use xlink:href="#p" x="80" y="144"/>
<use xlink:href="#p" x="80" y="160"/>
<use xlink:href="#p" x="80" y="176"/>
<use xlink:href="#p" x="80" y="192"/>
<use xlink:href="#p" x="80" y="208"/>
<use xlink:href="#p" x="80" y="224"/>
<use xlink:href="#p" x="80" y="240"/>
<use xlink:href="#p" x="80" y="256"/>
<use xlink:href="#p" x="80" y="272"/>
<use xlink:href="#p" x="80" y="288"/>
<use xlink:href="#p" x="80" y="304"/>
<use xlink:href="#p" x="80" y="320"/>
<use xlink:href="#p" x="80" y="336"/>
<use xlink:href="#p" x="80" y="352"/>
<use xlink:href="#p" x="80" y="368"/>
<use xlink:href="#p" x="80" y="376"/>
<use xlink:href="#p" x="80" y="384"/>
<use xlink:href="#p" x="80" y="392"/>
<use xlink:href="#p" x="80" y="400"/>
<use xlink:href="#p" x="80" y="408"/>
<use xlink:href="#p" x="80" y="416"/>
<use xlink:href="#p" x="88" y="96"/>
<use xlink:href="#p" x="88" y="104"/>
<use xlink:href="#p" x="88" y="112"/>
<use xlink:href="#p" x="88" y="120"/>
<use xlink:href="#p" x="88" y="144"/>
<use xlink:href="#p" x="88" y="192"/>
<use xlink:href="#p" x="88" y="200"/>
<use xlink:href="#p" x="88" y="208"/>
<use xlink:href="#p" x="88" y="240"/>
<use xlink:href="#p" x="88" y="248"/>
<use xlink:href="#p" x="88" y="256"/>
<use xlink:href="#p" x="88" y="264"/>
<use xlink:href="#p" x="88" y="280"/>
<use xlink:href="#p" x="88" y="288"/>
<use xlink:href="#p" x="88" y="304"/>
<use xlink:href="#p" x="88" y="312"/>
<use xlink:href="#p" x="88" y="328"/>
<use xlink:href="#p" x="88" y="336"/>
<use xlink:href="#p" x="96" y="32"/>
<use xlink:href="#p" x="96" y="40"/>
<use xlink:href="#p" x="96" y="80"/>
<use xlink:href="#p" x="96" y="96"/>
<use xlink:href="#p" x="96" y="104"/>
<use xlink:href="#p" x="96" y="112"/>
<use xlink:href="#p" x="96" y="128"/>
<use xlink:href="#p" x="96" y="144"/>
<use xlink:href="#p" x="96" y="152"/>
<use xlink:href="#p" x="96" y="168"/>
<use xlink:href="#p" x="96" y="176"/>
<use xlink:href="#p" x="96" y="200"/>
<use xlink:href="#p" x="96" y="208"/>
<use xlink:href="#p" x="96" y="216"/>
<use xlink:href="#p" x="96" y="224"/>
<use xlink:href="#p" x="96" y="232"/>
<use xlink:href="#p" x="96" y="240"/>
<use xlink:href="#p" x="96" y="248"/>
<use xlink:href="#p" x="96" y="256"/>
<use xlink:href="#p" x="96" y="264"/>
<use xlink:href="#p" x="96" y="272"/>
<use xlink:href="#p" x="96" y="280"/>
<use xlink:href="#p" x="96" y="288"/>
<use xlink:href="#p" x="96" y="344"/>
<use xlink:href="#p" x="96" y="360"/>
<use xlink:href="#p" x="96" y="368"/>
<use xlink:href="#p" x="96" y="408"/>
<use xlink:href="#p" x="104" y="40"/>
<use xlink:href="#p" x="104" y="48"/>
<use xlink:href="#p" x="104" y="64"/>
<use xlink:href="#p" x="104" y="72"/>
<use xlink:href="#p" x="104" y="104"/>
<use xlink:href="#p" x="104" y="112"/>
<use xlink:href="#p" x="104" y="136"/>
<use xlink:href="#p" x="104" y="144"/>
<use xlink:href="#p" x="104" y="152"/>
<use xlink:href="#p" x="104" y="168"/>
<use xlink:href="#p" x="104" y="192"/>
<use xlink:href="#p" x="104" y="208"/>
<use xlink:href="#p" x="104" y="216"/>
<use xlink:href="#p" x="104" y="240"/>
<use xlink:href="#p" x="104" y="288"/>
<use xlink:href="#p" x="104" y="296"/>
<use xlink:href="#p" x="104" y="312"/>
<use xlink:href="#p" x="104" y="328"/>
<use xlink:href="#p" x="104" y="336"/>
<use xlink:href="#p" x="104" y="368"/>
<use xlink:href="#p" x="104" y="376"/>
<use xlink:href="#p" x="104" y="392"/>
<use xlink:href="#p" x="104" y="400"/>
<use xlink:href="#p" x="104" y="408"/>
<use xlink:href="#p" x="104" y="416"/>
<use xlink:href="#p" x="112" y="56"/>
<use xlink:href="#p" x="112" y="80"/>
<use xlink:href="#p" x="112" y="88"/>
<use xlink:href="#p" x="112" y="96"/>
<use xlink:href="#p" x="112" y="104"/>
<use xlink:href="#p" x="112" y="120"/>
<use xlink:href="#p" x="112" y="144"/>
<use xlink:href="#p" x="112" y="160"/>
<use xlink:href="#p" x="112" y="168"/>
<use xlink:href="#p" x="112" y="176"/>
<use xlink:href="#p" x="112" y="184"/>
<use xlink:href="#p" x="112" y="192"/>
<use xlink:href="#p" x="112" y="232"/>
<use xlink:href="#p" x="112" y="240"/>
<use xlink:href="#p" x="112" y="256"/>
<use xlink:href="#p" x="112" y="272"/>
<use xlink:href="#p" x="112" y="280"/>
<use xlink:href="#p" x="112" y="288"/>
<use xlink:href="#p" x="112" y="296"/>
<use xlink:href="#p" x="112" y="344"/>
<use xlink:href="#p" x="112" y="360"/>
<use xlink:href="#p" x="112" y="376"/>
<use xlink:href="#p" x="112" y="384"/>
<use xlink:href="#p" x="112" y="392"/>
<use xlink:href="#p" x="112" y="400"/>
<use xlink:href="#p" x="112" y="408"/>
<use xlink:href="#p" x="120" y="40"/>
<use xlink:href="#p" x="120" y="48"/>
<use xlink:href="#p" x="120" y="56"/>
<use xlink:href="#p" x="120" y="64"/>
<use xlink:href="#p" x="120" y="72"/>
<use xlink:href="#p" x="120" y="96"/>
<use xlink:href="#p" x="120" y="104"/>
<use xlink:href="#p" x="120" y="120"/>
<use xlink:href="#p" x="120" y="136"/>
<use xlink:href="#p" x="120" y="168"/>
<use xlink:href="#p" x="120" y="176"/>
<use xlink:href="#p" x="120" y="208"/>
<use xlink:href="#p" x="120" y="216"/>
<use xlink:href="#p" x="120" y="232"/>
<use xlink:href="#p" x="120" y="248"/>
<use xlink:href="#p" x="120" y="272"/>
<use xlink:href="#p" x="120" y="296"/>
<use xlink:href="#p" x="120" y="304"/>
<use xlink:href="#p" x="120" y="344"/>
<use xlink:href="#p" x="120" y="360"/>
<use xlink:href="#p" x="120" y="376"/>
<use xlink:href="#p" x="120" y="384"/>
<use xlink:href="#p" x="120" y="416"/>
<use xlink:href="#p" x="128" y="48"/>
<use xlink:href="#p" x="128" y="56"/>
<use xlink:href="#p" x="128" y="64"/>
<use xlink:href="#p" x="128" y="80"/>
<use xlink:href="#p" x="128" y="120"/>
<use xlink:href="#p" x="128" y="128"/>
<use xlink:href="#p" x="128" y="152"/>
<use xlink:href="#p" x="128" y="176"/>
<use xlink:href="#p" x="128" y="216"/>
<use xlink:href="#p" x="128" y="232"/>
<use xlink:href="#p" x="128" y="240"/>
<use xlink:href="#p" x="128" y="248"/>
<use xlink:href="#p" x="128" y="256"/>
<use xlink:href="#p" x="128" y="264"/>
<use xlink:href="#p" x="128" y="272"/>
<use xlink:href="#p" x="128" y="280"/>
<use xlink:href="#p" x="128" y="288"/>
<use xlink:href="#p" x="128" y="296"/>
<use xlink:href="#p" x="128" y="336"/>
<use xlink:href="#p" x="128" y="344"/>
<use xlink:href="#p" x="128" y="352"/>
<use xlink:href="#p" x="128" y="360"/>
<use xlink:href="#p" x="128" y="368"/>
<use xlink:href="#p" x="128" y="392"/>
<use xlink:href="#p" x="128" y="400"/>
<use xlink:href="#p" x="128" y="408"/>
<use xlink:href="#p" x="128" y="416"/>
<use xlink:href="#p" x="136" y="32"/>
<use xlink:href="#p" x="136" y="40"/>
<use xlink:href="#p" x="136" y="56"/>
<use xlink:href="#p" x="136" y="72"/>
<use xlink:href="#p" x="136" y="96"/>
<use xlink:href="#p" x="136" y="112"/>
<use xlink:href="#p" x="136" y="128"/>
<use xlink:href="#p" x="136" y="144"/>
<use xlink:href="#p" x="136" y="152"/>
<use xlink:href="#p" x="136" y="160"/>
<use xlink:href="#p" x="136" y="168"/>
<use xlink:href="#p" x="136" y="176"/>
<use xlink:href="#p" x="136" y="184"/>
<use xlink:href="#p" x="136" y="200"/>
<use xlink:href="#p" x="136" y="208"/>
<use xlink:href="#p" x="136" y="216"/>
<use xlink:href="#p" x="136" y="264"/>
<use xlink:href="#p" x="136" y="272"/>
<use xlink:href="#p" x="136" y="280"/>
<use xlink:href="#p" x="136" y="288"/>
<use xlink:href="#p" x="136" y="304"/>
<use xlink:href="#p" x="136" y="320"/>
<use xlink:href="#p" x="136" y="328"/>
<use xlink:href="#p" x="136" y="336"/>
<use xlink:href="#p" x="136" y="344"/>
<use xlink:href="#p" x="136" y="352"/>
<use xlink:href="#p" x="136" y="376"/>
<use xlink:href="#p" x="136" y="392"/>
<use xlink:href="#p" x="144" y="32"/>
<use xlink:href="#p" x="144" y="40"/>
<use xlink:href="#p" x="144" y="48"/>
<use xlink:href="#p" x="144" y="64"/>
<use xlink:href="#p" x="144" y="80"/>
<use xlink:href="#p" x="144" y="96"/>
<use xlink:href="#p" x="144" y="112"/>
<use xlink:href="#p" x="144" y="128"/>
<use xlink:href="#p" x="144" y="144"/>
<use xlink:href="#p" x="144" y="160"/>
<use xlink:href="#p" x="144" y="168"/>
<use xlink:href="#p" x="144" y="176"/>
<use xlink:href="#p" x="144" y="184"/>
<use xlink:href="#p" x="144" y="200"/>
<use xlink:href="#p" x="144" y="216"/>
<use xlink:href="#p" x="144" y="240"/>
<use xlink:href="#p" x="144" y="248"/>
<use xlink:href="#p" x="144" y="272"/>
<use xlink:href="#p" x="144" y="296"/>
<use xlink:href="#p" x="144" y="304"/>
<use xlink:href="#p" x="144" y="344"/>
<use xlink:href="#p" x="144" y="352"/>
<use xlink:href="#p" x="144" y="376"/>
<use xlink:href="#p" x="144" y="392"/>
<use xlink:href="#p" x="144" y="400"/>
<use xlink:href="#p" x="144" y="408"/>
<use xlink:href="#p" x="152" y="48"/>
<use xlink:href="#p" x="152" y="96"/>
<use xlink:href="#p" x="152" y="120"/>
<use xlink:href="#p" x="152" y="128"/>
<use xlink:href="#p" x="152" y="136"/>
<use xlink:href="#p" x="152" y="160"/>
<use xlink:href="#p" x="152" y="168"/>
<use xlink:href="#p" x="152" y="184"/>
<use xlink:href="#p" x="152" y="192"/>
<use xlink:href="#p" x="152" y="200"/>
<use xlink:href="#p" x="152" y="208"/>
<use xlink:href="#p" x="152" y="224"/>
<use xlink:href="#p" x="152" y="240"/>
<use xlink:href="#p" x="152" y="248"/>
<use xlink:href="#p" x="152" y="272"/>
<use xlink:href="#p" x="152" y="280"/>
<use xlink:href="#p" x="152" y="304"/>
<use xlink:href="#p" x="152" y="312"/>
<use xlink:href="#p" x="152" y="320"/>
<use xlink:href="#p" x="152" y="328"/>
<use xlink:href="#p" x="152" y="352"/>
<use xlink:href="#p" x="152" y="360"/>
<use xlink:href="#p" x="152" y="376"/>
<use xlink:href="#p" x="152" y="384"/>
<use xlink:href="#p" x="152" y="408"/>
<use xlink:href="#p" x="160" y="32"/>
<use xlink:href="#p" x="160" y="48"/>
<use xlink:href="#p" x="160" y="72"/>
<use xlink:href="#p" x="160" y="80"/>
<use xlink:href="#p" x="160" y="104"/>
<use xlink:href="#p" x="160" y="112"/>
<use xlink:href="#p" x="160" y="120"/>
<use xlink:href="#p" x="160" y="128"/>
<use xlink:href="#p" x="160" y="168"/>
<use xlink:href="#p" x="160" y="176"/>
<use xlink:href="#p" x="160" y="184"/>
<use xlink:href="#p" x="160" y="192"/>
<use xlink:href="#p" x="160" y="200"/>
<use xlink:href="#p" x="160" y="216"/>
<use xlink:href="#p" x="160" y="272"/>
<use xlink:href="#p" x="160" y="296"/>
<use xlink:href="#p" x="160" y="320"/>
<use xlink:href="#p" x="160" y="344"/>
<use xlink:href="#p" x="160" y="384"/>
<use xlink:href="#p" x="168" y="48"/>
<use xlink:href="#p" x="168" y="96"/>
<use xlink:href="#p" x="168" y="120"/>
<use xlink:href="#p" x="168" y="136"/>
<use xlink:href="#p" x="168" y="144"/>
<use xlink:href="#p" x="168" y="160"/>
<use xlink:href="#p" x="168" y="168"/>
<use xlink:href="#p" x="168" y="232"/>
<use xlink:href="#p" x="168" y="248"/>
<use xlink:href="#p" x="168" y="280"/>
<use xlink:href="#p" x="168" y="296"/>
<use xlink:href="#p" x="168" y="304"/>
<use xlink:href="#p" x="168" y="312"/>
<use xlink:href="#p" x="168" y="344"/>
<use xlink:href="#p" x="168" y="352"/>
<use xlink:href="#p" x="168" y="360"/>
<use xlink:href="#p" x="168" y="368"/>
<use xlink:href="#p" x="168" y="384"/>
<use xlink:href="#p" x="168" y="408"/>
<use xlink:href="#p" x="176" y="48"/>
<use xlink:href="#p" x="176" y="64"/>
<use xlink:href="#p" x="176" y="72"/>
<use xlink:href="#p" x="176" y="80"/>
<use xlink:href="#p" x="176" y="96"/>
<use xlink:href="#p" x="176" y="104"/>
<use xlink:href="#p" x="176" y="112"/>
<use xlink:href="#p" x="176" y="168"/>
<use xlink:href="#p" x="176" y="176"/>
<use xlink:href="#p" x="176" y="192"/>
<use xlink:href="#p" x="176" y="200"/>
<use xlink:href="#p" x="176" y="240"/>
<use xlink:href="#p" x="176" y="288"/>
<use xlink:href="#p" x="176" y="304"/>
<use xlink:href="#p" x="176" y="312"/>
<use xlink:href="#p" x="176" y="328"/>
<use xlink:href="#p" x="176" y="352"/>
<use xlink:href="#p" x="176" y="368"/>
<use xlink:href="#p" x="176" y="376"/>
<use xlink:href="#p" x="176" y="392"/>
<use xlink:href="#p" x="184" y="32"/>
<use xlink:href="#p" x="184" y="88"/>
<use xlink:href="#p" x="184" y="104"/>
<use xlink:href="#p" x="184" y="112"/>
<use xlink:href="#p" x="184" y="128"/>
<use xlink:href="#p" x="184" y="160"/>
<use xlink:href="#p" x="184" y="192"/>
<use xlink:href="#p" x="184" y="216"/>
<use xlink:href="#p" x="184" y="224"/>
<use xlink:href="#p" x="184" y="240"/>
<use xlink:href="#p" x="184" y="304"/>
<use xlink:href="#p" x="184" y="312"/>
<use xlink:href="#p" x="184" y="328"/>
<use xlink:href="#p" x="184" y="384"/>
<use xlink:href="#p" x="184" y="400"/>
<use xlink:href="#p" x="184" y="416"/>
<use xlink:href="#p" x="192" y="40"/>
<use xlink:href="#p" x="192" y="48"/>
<use xlink:href="#p" x="192" y="56"/>
<use xlink:href="#p" x="192" y="72"/>
<use xlink:href="#p" x="192" y="80"/>
<use xlink:href="#p" x="192" y="88"/>
<use xlink:href="#p" x="192" y="96"/>
<use xlink:href="#p" x="192" y="112"/>
<use xlink:href="#p" x="192" y="136"/>
<use xlink:href="#p" x="192" y="152"/>
<use xlink:href="#p" x="192" y="160"/>
<use xlink:href="#p" x="192" y="176"/>
<use xlink:href="#p" x="192" y="208"/>
<use xlink:href="#p" x="192" y="240"/>
<use xlink:href="#p" x="192" y="256"/>
<use xlink:href="#p" x="192" y="280"/>
<use xlink:href="#p" x="192" y="296"/>
<use xlink:href="#p" x="192" y="304"/>
<use xlink:href="#p" x="192" y="320"/>
<use xlink:href="#p" x="192" y="336"/>
<use xlink:href="#p" x="192" y="344"/>
<use xlink:href="#p" x="192" y="352"/>
<use xlink:href="#p" x="192" y="360"/>
<use xlink:href="#p" x="192" y="376"/>
<use xlink:href="#p" x="192" y="384"/>
<use xlink:href="#p" x="192" y="400"/>
<use xlink:href="#p" x="192" y="416"/>
<use xlink:href="#p" x="200" y="48"/>
<use xlink:href="#p" x="200" y="56"/>
<use xlink:href="#p" x="200" y="72"/>
<use xlink:href="#p" x="200" y="88"/>
<use xlink:href="#p" x="200" y="96"/>
<use xlink:href="#p" x="200" y="136"/>
<use xlink:href="#p" x="200" y="152"/>
<use xlink:href="#p" x="200" y="160"/>
<use xlink:href="#p" x="200" y="208"/>
<use xlink:href="#p" x="200" y="216"/>
<use xlink:href="#p" x="200" y="232"/>
<use xlink:href="#p" x="200" y="256"/>
<use xlink:href="#p" x="200" y="264"/>
<use xlink:href="#p" x="200" y="272"/>
<use xlink:href="#p" x="200" y="280"/>
<use xlink:href="#p" x="200" y="296"/>
<use xlink:href="#p" x="200" y="312"/>
<use xlink:href="#p" x="200" y="344"/>
<use xlink:href="#p" x="200" y="360"/>
<use xlink:href="#p" x="200" y="376"/>
<use xlink:href="#p" x="200" y="392"/>
<use xlink:href="#p" x="200" y="400"/>
<use xlink:href="#p" x="200" y="408"/>
<use xlink:href="#p" x="200" y="416"/>
<use xlink:href="#p" x="208" y="32"/>
<use xlink:href="#p" x="208" y="48"/>
<use xlink:href="#p" x="208" y="56"/>
<use xlink:href="#p" x="208" y="64"/>
<use xlink:href="#p" x="208" y="72"/>
<use xlink:href="#p" x="208" y="80"/>
<use xlink:href="#p" x="208" y="88"/>
<use xlink:href="#p" x="208" y="96"/>
<use xlink:href="#p" x="208" y="120"/>
<use xlink:href="#p" x="208" y="128"/>
<use xlink:href="#p" x="208" y="152"/>
<use xlink:href="#p" x="208" y="168"/>
<use xlink:href="#p" x="208" y="192"/>
<use xlink:href="#p" x="208" y="208"/>
<use xlink:href="#p" x="208" y="216"/>
<use xlink:href="#p" x="208" y="224"/>
<use xlink:href="#p" x="208" y="232"/>
<use xlink:href="#p" x="208" y="240"/>
<use xlink:href="#p" x="208" y="256"/>
<use xlink:href="#p" x="208" y="264"/>
<use xlink:href="#p" x="208" y="296"/>
<use xlink:href="#p" x="208" y="304"/>
<use xlink:href="#p" x="208" y="320"/>
<use xlink:href="#p" x="208" y="336"/>
<use xlink:href="#p" x="208" y="352"/>
<use xlink:href="#p" x="208" y="360"/>
<use xlink:href="#p" x="208" y="368"/>
<use xlink:href="#p" x="208" y="376"/>
<use xlink:href="#p" x="208" y="384"/>
<use xlink:href="#p" x="208" y="400"/>
<use xlink:href="#p" x="208" y="416"/>
<use xlink:href="#p" x="216" y="32"/>
<use xlink:href="#p" x="216" y="40"/>
<use xlink:href="#p" x="216" y="48"/>
<use xlink:href="#p" x="216" y="64"/>
<use xlink:href="#p" x="216" y="96"/>
<use xlink:href="#p" x="216" y="104"/>
<use xlink:href="#p" x="216" y="112"/>
<use xlink:href="#p" x="216" y="152"/>
<use xlink:href="#p" x="216" y="160"/>
<use xlink:href="#p" x="216" y="176"/>
<use xlink:href="#p" x="216" y="184"/>
<use xlink:href="#p" x="216" y="200"/>
<use xlink:href="#p" x="216" y="208"/>
<use xlink:href="#p" x="216" y="240"/>
<use xlink:href="#p" x="216" y="256"/>
<use xlink:href="#p" x="216" y="264"/>
<use xlink:href="#p" x="216" y="272"/>
<use xlink:href="#p" x="216" y="296"/>
<use xlink:href="#p" x="216" y="304"/>
<use xlink:href="#p" x="216" y="312"/>
<use xlink:href="#p" x="216" y="320"/>
<use xlink:href="#p" x="216" y="336"/>
<use xlink:href="#p" x="216" y="352"/>
<use xlink:href="#p" x="216" y="384"/>
<use xlink:href="#p" x="216" y="400"/>
<use xlink:href="#p" x="216" y="416"/>
<use xlink:href="#p" x="224" y="32"/>
<use xlink:href="#p" x="224" y="48"/>
<use xlink:href="#p" x="224" y="64"/>
<use xlink:href="#p" x="224" y="80"/>
<use xlink:href="#p" x="224" y="96"/>
<use xlink:href="#p" x="224" y="112"/>
<use xlink:href="#p" x="224" y="128"/>
<use xlink:href="#p" x="224" y="136"/>
<use xlink:href="#p" x="224" y="168"/>
<use xlink:href="#p" x="224" y="176"/>
<use xlink:href="#p" x="224" y="184"/>
<use xlink:href="#p" x="224" y="208"/>
<use xlink:href="#p" x="224" y="224"/>
<use xlink:href="#p" x="224" y="240"/>
<use xlink:href="#p" x="224" y="256"/>
<use xlink:href="#p" x="224" y="272"/>
<use xlink:href="#p" x="224" y="296"/>
<use xlink:href="#p" x="224" y="304"/>
<use xlink:href="#p" x="224" y="328"/>
<use xlink:href="#p" x="224" y="336"/>
<use xlink:href="#p" x="224" y="344"/>
<use xlink:href="#p" x="224" y="352"/>
<use xlink:href="#p" x="224" y="368"/>
<use xlink:href="#p" x="224" y="384"/>
<use xlink:href="#p" x="224" y="392"/>
<use xlink:href="#p" x="224" y="400"/>
<use xlink:href="#p" x="224" y="416"/>
<use xlink:href="#p" x="232" y="40"/>
<use xlink:href="#p" x="232" y="64"/>
<use xlink:href="#p" x="232" y="96"/>
<use xlink:href="#p" x="232" y="152"/>
<use xlink:href="#p" x="232" y="176"/>
<use xlink:href="#p" x="232" y="184"/>
<use xlink:href="#p" x="232" y="192"/>
<use xlink:href="#p" x="232" y="208"/>
<use xlink:href="#p" x="232" y="240"/>
<use xlink:href="#p" x="232" y="248"/>
<use xlink:href="#p" x="232" y="256"/>
<use xlink:href="#p" x="232" y="264"/>
<use xlink:href="#p" x="232" y="288"/>
<use xlink:href="#p" x="232" y="304"/>
<use xlink:href="#p" x="232" y="352"/>
<use xlink:href="#p" x="232" y="384"/>
<use xlink:href="#p" x="232" y="392"/>
<use xlink:href="#p" x="232" y="400"/>
<use xlink:href="#p" x="232" y="416"/>
<use xlink:href="#p" x="240" y="32"/>
<use xlink:href="#p" x="240" y="56"/>
<use xlink:href="#p" x="240" y="64"/>
<use xlink:href="#p" x="240" y="72"/>
<use xlink:href="#p" x="240" y="80"/>
<use xlink:href="#p" x="240" y="88"/>
<use xlink:href="#p" x="240" y="96"/>
<use xlink:href="#p" x="240" y="104"/>
<use xlink:href="#p" x="240" y="112"/>
<use xlink:href="#p" x="240" y="144"/>
<use xlink:href="#p" x="240" y="152"/>
<use xlink:href="#p" x="240" y="192"/>
<use xlink:href="#p" x="240" y="208"/>
<use xlink:href="#p" x="240" y="216"/>
<use xlink:href="#p" x="240" y="224"/>
<use xlink:href="#p" x="240" y="232"/>
<use xlink:href="#p" x="240" y="240"/>
<use xlink:href="#p" x="240" y="256"/>
<use xlink:href="#p" x="240" y="264"/>
<use xlink:href="#p" x="240" y="272"/>
<use xlink:href="#p" x="240" y="280"/>
<use xlink:href="#p" x="240" y="288"/>
<use xlink:href="#p" x="240" y="312"/>
<use xlink:href="#p" x="240" y="328"/>
<use xlink:href="#p" x="240" y="352"/>
<use xlink:href="#p" x="240" y="360"/>
<use xlink:href="#p" x="240" y="368"/>
<use xlink:href="#p" x="240" y="376"/>
<use xlink:href="#p" x="240" y="384"/>
<use xlink:href="#p" x="240" y="392"/>
<use xlink:href="#p" x="248" y="40"/>
<use xlink:href="#p" x="248" y="48"/>
<use xlink:href="#p" x="248" y="56"/>
<use xlink:href="#p" x="248" y="96"/>
<use xlink:href="#p" x="248" y="104"/>
<use xlink:href="#p" x="248" y="128"/>
<use xlink:href="#p" x="248" y="136"/>
<use xlink:href="#p" x="248" y="144"/>
<use xlink:href="#p" x="248" y="160"/>
<use xlink:href="#p" x="248" y="168"/>
<use xlink:href="#p" x="248" y="176"/>
<use xlink:href="#p" x="248" y="184"/>
<use xlink:href="#p" x="248" y="200"/>
<use xlink:href="#p" x="248" y="208"/>
<use xlink:href="#p" x="248" y="248"/>
<use xlink:href="#p" x="248" y="264"/>
<use xlink:href="#p" x="248" y="280"/>
<use xlink:href="#p" x="248" y="288"/>
<use xlink:href="#p" x="248" y="296"/>
<use xlink:href="#p" x="248" y="304"/>
<use xlink:href="#p" x="248" y="344"/>
<use xlink:href="#p" x="248" y="368"/>
<use xlink:href="#p" x="248" y="384"/>
<use xlink:href="#p" x="248" y="392"/>
<use xlink:href="#p" x="256" y="40"/>
<use xlink:href="#p" x="256" y="48"/>
<use xlink:href="#p" x="256" y="56"/>
<use xlink:href="#p" x="256" y="64"/>
<use xlink:href="#p" x="256" y="80"/>
<use xlink:href="#p" x="256" y="88"/>
<use xlink:href="#p" x="256" y="112"/>
<use xlink:href="#p" x="256" y="120"/>
<use xlink:href="#p" x="256" y="144"/>
<use xlink:href="#p" x="256" y="184"/>
<use xlink:href="#p" x="256" y="192"/>
<use xlink:href="#p" x="256" y="208"/>
<use xlink:href="#p" x="256" y="232"/>
<use xlink:href="#p" x="256" y="240"/>
<use xlink:href="#p" x="256" y="264"/>
<use xlink:href="#p" x="256" y="296"/>
<use xlink:href="#p" x="256" y="312"/>
<use xlink:href="#p" x="256" y="320"/>
<use xlink:href="#p" x="256" y="328"/>
<use xlink:href="#p" x="256" y="344"/>
<use xlink:href="#p" x="256" y="368"/>
<use xlink:href="#p" x="256" y="376"/>
<use xlink:href="#p" x="256" y="400"/>
<use xlink:href="#p" x="256" y="408"/>
<use xlink:href="#p" x="256" y="416"/>
<use xlink:href="#p" x="264" y="48"/>
<use xlink:href="#p" x="264" y="64"/>
<use xlink:href="#p" x="264" y="88"/>
<use xlink:href="#p" x="264" y="96"/>
<use xlink:href="#p" x="264" y="112"/>
<use xlink:href="#p" x="264" y="128"/>
<use xlink:href="#p" x="264" y="144"/>
<use xlink:href="#p" x="264" y="160"/>
<use xlink:href="#p" x="264" y="200"/>
<use xlink:href="#p" x="264" y="224"/>
<use xlink:href="#p" x="264" y="232"/>
<use xlink:href="#p" x="264" y="248"/>
<use xlink:href="#p" x="264" y="264"/>
<use xlink:href="#p" x="264" y="272"/>
<use xlink:href="#p" x="264" y="304"/>
<use xlink:href="#p" x="264" y="320"/>
<use xlink:href="#p" x="264" y="328"/>
<use xlink:href="#p" x="264" y="344"/>
<use xlink:href="#p" x="264" y="360"/>
<use xlink:href="#p" x="264" y="368"/>
<use xlink:href="#p" x="264" y="376"/>
<use xlink:href="#p" x="264" y="384"/>
<use xlink:href="#p" x="264" y="392"/>
<use xlink:href="#p" x="264" y="416"/>
<use xlink:href="#p" x="272" y="32"/>
<use xlink:href="#p" x="272" y="64"/>
<use xlink:href="#p" x="272" y="80"/>
<use xlink:href="#p" x="272" y="88"/>
<use xlink:href="#p" x="272" y="96"/>
<use xlink:href="#p" x="272" y="104"/>
<use xlink:href="#p" x="272" y="120"/>
<use xlink:href="#p" x="272" y="136"/>
<use xlink:href="#p" x="272" y="152"/>
<use xlink:href="#p" x="272" y="160"/>
<use xlink:href="#p" x="272" y="168"/>
<use xlink:href="#p" x="272" y="176"/>
<use xlink:href="#p" x="272" y="184"/>
<use xlink:href="#p" x="272" y="192"/>
<use xlink:href="#p" x="272" y="200"/>
<use xlink:href="#p" x="272" y="216"/>
<use xlink:href="#p" x="272" y="232"/>
<use xlink:href="#p" x="272" y="248"/>
<use xlink:href="#p" x="272" y="264"/>
<use xlink:href="#p" x="272" y="280"/>
<use xlink:href="#p" x="272" y="296"/>
<use xlink:href="#p" x="272" y="312"/>
<use xlink:href="#p" x="272" y="320"/>
<use xlink:href="#p" x="272" y="328"/>
<use xlink:href="#p" x="272" y="336"/>
<use xlink:href="#p" x="272" y="368"/>
<use xlink:href="#p" x="272" y="384"/>
<use xlink:href="#p" x="272" y="392"/>
<use xlink:href="#p" x="280" y="40"/>
<use xlink:href="#p" x="280" y="56"/>
<use xlink:href="#p" x="280" y="72"/>
<use xlink:href="#p" x="280" y="96"/>
<use xlink:href="#p" x="280" y="112"/>
<use xlink:href="#p" x="280" y="120"/>
<use xlink:href="#p" x="280" y="128"/>
<use xlink:href="#p" x="280" y="136"/>
<use xlink:href="#p" x="280" y="144"/>
<use xlink:href="#p" x="280" y="192"/>
<use xlink:href="#p" x="280" y="200"/>
<use xlink:href="#p" x="280" y="216"/>
<use xlink:href="#p" x="280" y="232"/>
<use xlink:href="#p" x="280" y="248"/>
<use xlink:href="#p" x="280" y="256"/>
<use xlink:href="#p" x="280" y="264"/>
<use xlink:href="#p" x="280" y="272"/>
<use xlink:href="#p" x="280" y="280"/>
<use xlink:href="#p" x="280" y="296"/>
<use xlink:href="#p" x="280" y="320"/>
<use xlink:href="#p" x="280" y="336"/>
<use xlink:href="#p" x="280" y="352"/>
<use xlink:href="#p" x="280" y="360"/>
<use xlink:href="#p" x="280" y="368"/>
<use xlink:href="#p" x="280" y="384"/>
<use xlink:href="#p" x="280" y="400"/>
<use xlink:href="#p" x="280" y="408"/>
<use xlink:href="#p" x="288" y="32"/>
<use xlink:href="#p" x="288" y="56"/>
<use xlink:href="#p" x="288" y="80"/>
<use xlink:href="#p" x="288" y="96"/>
<use xlink:href="#p" x="288" y="112"/>
<use xlink:href="#p" x="288" y="120"/>
<use xlink:href="#p" x="288" y="128"/>
<use xlink:href="#p" x="288" y="184"/>
<use xlink:href="#p" x="288" y="200"/>
<use xlink:href="#p" x="288" y="208"/>
<use xlink:href="#p" x="288" y="216"/>
<use xlink:href="#p" x="288" y="224"/>
<use xlink:href="#p" x="288" y="232"/>
<use xlink:href="#p" x="288" y="264"/>
<use xlink:href="#p" x="288" y="272"/>
<use xlink:href="#p" x="288" y="296"/>
<use xlink:href="#p" x="288" y="312"/>
<use xlink:href="#p" x="288" y="320"/>
<use xlink:href="#p" x="288" y="368"/>
<use xlink:href="#p" x="288" y="376"/>
<use xlink:href="#p" x="288" y="400"/>
<use xlink:href="#p" x="288" y="408"/>
<use xlink:href="#p" x="288" y="416"/>
<use xlink:href="#p" x="296" y="48"/>
<use xlink:href="#p" x="296" y="56"/>
<use xlink:href="#p" x="296" y="72"/>
<use xlink:href="#p" x="296" y="88"/>
<use xlink:href="#p" x="296" y="104"/>
<use xlink:href="#p" x="296" y="112"/>
<use xlink:href="#p" x="296" y="136"/>
<use xlink:href="#p" x="296" y="144"/>
<use xlink:href="#p" x="296" y="184"/>
<use xlink:href="#p" x="296" y="192"/>
<use xlink:href="#p" x="296" y="200"/>
<use xlink:href="#p" x="296" y="208"/>
<use xlink:href="#p" x="296" y="216"/>
<use xlink:href="#p" x="296" y="256"/>
<use xlink:href="#p" x="296" y="272"/>
<use xlink:href="#p" x="296" y="280"/>
<use xlink:href="#p" x="296" y="288"/>
<use xlink:href="#p" x="296" y="296"/>
<use xlink:href="#p" x="296" y="304"/>
<use xlink:href="#p" x="296" y="328"/>
<use xlink:href="#p" x="296" y="344"/>
<use xlink:href="#p" x="296" y="352"/>
<use xlink:href="#p" x="296" y="360"/>
<use xlink:href="#p" x="296" y="368"/>
<use xlink:href="#p" x="296" y="392"/>
<use xlink:href="#p" x="296" y="400"/>
<use xlink:href="#p" x="296" y="408"/>
<use xlink:href="#p" x="304" y="32"/>
<use xlink:href="#p" x="304" y="40"/>
<use xlink:href="#p" x="304" y="72"/>
<use xlink:href="#p" x="304" y="80"/>
<use xlink:href="#p" x="304" y="88"/>
<use xlink:href="#p" x="304" y="96"/>
<use xlink:href="#p" x="304" y="104"/>
<use xlink:href="#p" x="304" y="112"/>
<use xlink:href="#p" x="304" y="128"/>
<use xlink:href="#p" x="304" y="144"/>
<use xlink:href="#p" x="304" y="152"/>
<use xlink:href="#p" x="304" y="176"/>
<use xlink:href="#p" x="304" y="200"/>
<use xlink:href="#p" x="304" y="208"/>
<use xlink:href="#p" x="304" y="216"/>
<use xlink:href="#p" x="304" y="240"/>
<use xlink:href="#p" x="304" y="256"/>
<use xlink:href="#p" x="304" y="280"/>
<use xlink:href="#p" x="304" y="288"/>
<use xlink:href="#p" x="304" y="296"/>
<use xlink:href="#p" x="304" y="304"/>
<use xlink:href="#p" x="304" y="336"/>
<use xlink:href="#p" x="304" y="352"/>
<use xlink:href="#p" x="304" y="360"/>
<use xlink:href="#p" x="304" y="368"/>
<use xlink:href="#p" x="304" y="392"/>
<use xlink:href="#p" x="304" y="400"/>
<use xlink:href="#p" x="304" y="408"/>
<use xlink:href="#p" x="312" y="32"/>
<use xlink:href="#p" x="312" y="40"/>
<use xlink:href="#p" x="312" y="48"/>
<use xlink:href="#p" x="312" y="56"/>
<use xlink:href="#p" x="312" y="72"/>
<use xlink:href="#p" x="312" y="96"/>
<use xlink:href="#p" x="312" y="112"/>
<use xlink:href="#p" x="312" y="144"/>
<use xlink:href="#p" x="312" y="160"/>
<use xlink:href="#p" x="312" y="168"/>
<use xlink:href="#p" x="312" y="176"/>
<use xlink:href="#p" x="312" y="192"/>
<use xlink:href="#p" x="312" y="200"/>
<use xlink:href="#p" x="312" y="240"/>
<use xlink:href="#p" x="312" y="256"/>
<use xlink:href="#p" x="312" y="264"/>
<use xlink:href="#p" x="312" y="280"/>
<use xlink:href="#p" x="312" y="296"/>
<use xlink:href="#p" x="312" y="312"/>
<use xlink:href="#p" x="312" y="336"/>
<use xlink:href="#p" x="312" y="344"/>
<use xlink:href="#p" x="312" y="352"/>
<use xlink:href="#p" x="312" y="368"/>
<use xlink:href="#p" x="312" y="384"/>
<use xlink:href="#p" x="312" y="392"/>
<use xlink:href="#p" x="312" y="400"/>
<use xlink:href="#p" x="320" y="40"/>
<use xlink:href="#p" x="320" y="56"/>
<use xlink:href="#p" x="320" y="80"/>
<use xlink:href="#p" x="320" y="88"/>
<use xlink:href="#p" x="320" y="128"/>
<use xlink:href="#p" x="320" y="136"/>
<use xlink:href="#p" x="320" y="144"/>
<use xlink:href="#p" x="320" y="160"/>
<use xlink:href="#p" x="320" y="176"/>
<use xlink:href="#p" x="320" y="192"/>
<use xlink:href="#p" x="320" y="200"/>
<use xlink:href="#p" x="320" y="224"/>
<use xlink:href="#p" x="320" y="256"/>
<use xlink:href="#p" x="320" y="280"/>
<use xlink:href="#p" x="320" y="288"/>
<use xlink:href="#p" x="320" y="296"/>
<use xlink:href="#p" x="320" y="304"/>
<use xlink:href="#p" x="320" y="320"/>
<use xlink:href="#p" x="320" y="352"/>
<use xlink:href="#p" x="320" y="368"/>
<use xlink:href="#p" x="320" y="384"/>
<use xlink:href="#p" x="320" y="400"/>
<use xlink:href="#p" x="320" y="416"/>
<use xlink:href="#p" x="328" y="32"/>
<use xlink:href="#p" x="328" y="40"/>
<use xlink:href="#p" x="328" y="56"/>
<use xlink:href="#p" x="328" y="64"/>
<use xlink:href="#p" x="328" y="104"/>
<use xlink:href="#p" x="328" y="136"/>
<use xlink:href="#p" x="328" y="160"/>
<use xlink:href="#p" x="328" y="200"/>
<use xlink:href="#p" x="328" y="216"/>
<use xlink:href="#p" x="328" y="224"/>
<use xlink:href="#p" x="328" y="232"/>
<use xlink:href="#p" x="328" y="248"/>
<use xlink:href="#p" x="328" y="256"/>
<use xlink:href="#p" x="328" y="264"/>
<use xlink:href="#p" x="328" y="280"/>
<use xlink:href="#p" x="328" y="288"/>
<use xlink:href="#p" x="328" y="296"/>
<use xlink:href="#p" x="328" y="304"/>
<use xlink:href="#p" x="328" y="312"/>
<use xlink:href="#p" x="328" y="328"/>
<use xlink:href="#p" x="328" y="344"/>
<use xlink:href="#p" x="328" y="360"/>
<use xlink:href="#p" x="328" y="368"/>
<use xlink:href="#p" x="328" y="384"/>
<use xlink:href="#p" x="328" y="392"/>
<use xlink:href="#p" x="336" y="40"/>
<use xlink:href="#p" x="336" y="72"/>
<use xlink:href="#p" x="336" y="80"/>
<use xlink:href="#p" x="336" y="104"/>
<use xlink:href="#p" x="336" y="112"/>
<use xlink:href="#p" x="336" y="144"/>
<use xlink:href="#p" x="336" y="152"/>
<use xlink:href="#p" x="336" y="176"/>
<use xlink:href="#p" x="336" y="184"/>
<use xlink:href="#p" x="336" y="192"/>
<use xlink:href="#p" x="336" y="200"/>
<use xlink:href="#p" x="336" y="208"/>
<use xlink:href="#p" x="336" y="216"/>
<use xlink:href="#p" x="336" y="240"/>
<use xlink:href="#p" x="336" y="248"/>
<use xlink:href="#p" x="336" y="296"/>
<use xlink:href="#p" x="336" y="304"/>
<use xlink:href="#p" x="336" y="312"/>
<use xlink:href="#p" x="336" y="336"/>
<use xlink:href="#p" x="336" y="352"/>
<use xlink:href="#p" x="336" y="360"/>
<use xlink:href="#p" x="336" y="368"/>
<use xlink:href="#p" x="336" y="384"/>
<use xlink:href="#p" x="336" y="392"/>
<use xlink:href="#p" x="336" y="400"/>
<use xlink:href="#p" x="336" y="408"/>
<use xlink:href="#p" x="336" y="416"/>
<use xlink:href="#p" x="344" y="40"/>
<use xlink:href="#p" x="344" y="48"/>
<use xlink:href="#p" x="344" y="56"/>
<use xlink:href="#p" x="344" y="96"/>
<use xlink:href="#p" x="344" y="112"/>
<use xlink:href="#p" x="344" y="152"/>
<use xlink:href="#p" x="344" y="160"/>
<use xlink:href="#p" x="344" y="168"/>
<use xlink:href="#p" x="344" y="176"/>
<use xlink:href="#p" x="344" y="184"/>
<use xlink:href="#p" x="344" y="192"/>
<use xlink:href="#p" x="344" y="200"/>
<use xlink:href="#p" x="344" y="208"/>
<use xlink:href="#p" x="344" y="224"/>
<use xlink:href="#p" x="344" y="256"/>
<use xlink:href="#p" x="344" y="272"/>
<use xlink:href="#p" x="344" y="280"/>
<use xlink:href="#p" x="344" y="288"/>
<use xlink:href="#p" x="344" y="296"/>
<use xlink:href="#p" x="344" y="304"/>
<use xlink:href="#p" x="344" y="312"/>
<use xlink:href="#p" x="344" y="320"/>
<use xlink:href="#p" x="344" y="328"/>
<use xlink:href="#p" x="344" y="336"/>
<use xlink:href="#p" x="344" y="344"/>
<use xlink:href="#p" x="344" y="352"/>
<use xlink:href="#p" x="344" y="368"/>
<use xlink:href="#p" x="344" y="376"/>
<use xlink:href="#p" x="344" y="384"/>
<use xlink:href="#p" x="344" y="392"/>
<use xlink:href="#p" x="344" y="400"/>
<use xlink:href="#p" x="344" y="408"/>
<use xlink:href="#p" x="344" y="416"/>
<use xlink:href="#p" x="352" y="32"/>
<use xlink:href="#p" x="352" y="40"/>
<use xlink:href="#p" x="352" y="48"/>
<use xlink:href="#p" x="352" y="80"/>
<use xlink:href="#p" x="352" y="88"/>
<use xlink:href="#p" x="352" y="96"/>
<use xlink:href="#p" x="352" y="104"/>
<use xlink:href="#p" x="352" y="112"/>
<use xlink:href="#p" x="352" y="120"/>
<use xlink:href="#p" x="352" y="144"/>
<use xlink:href="#p" x="352" y="168"/>
<use xlink:href="#p" x="352" y="184"/>
<use xlink:href="#p" x="352" y="200"/>
<use xlink:href="#p" x="352" y="208"/>
<use xlink:href="#p" x="352" y="216"/>
<use xlink:href="#p" x="352" y="224"/>
<use xlink:href="#p" x="352" y="232"/>
<use xlink:href="#p" x="352" y="240"/>
<use xlink:href="#p" x="352" y="272"/>
<use xlink:href="#p" x="352" y="280"/>
<use xlink:href="#p" x="352" y="288"/>
<use xlink:href="#p" x="352" y="296"/>
<use xlink:href="#p" x="352" y="304"/>
<use xlink:href="#p" x="352" y="312"/>
<use xlink:href="#p" x="352" y="352"/>
<use xlink:href="#p" x="352" y="360"/>
<use xlink:href="#p" x="352" y="368"/>
<use xlink:href="#p" x="352" y="376"/>
<use xlink:href="#p" x="352" y="384"/>
<use xlink:href="#p" x="352" y="392"/>
<use xlink:href="#p" x="352" y="416"/>
<use xlink:href="#p" x="360" y="96"/>
<use xlink:href="#p" x="360" y="112"/>
<use xlink:href="#p" x="360" y="120"/>
<use xlink:href="#p" x="360" y="144"/>
<use xlink:href="#p" x="360" y="152"/>
<use xlink:href="#p" x="360" y="168"/>
<use xlink:href="#p" x="360" y="176"/>
<use xlink:href="#p" x="360" y="184"/>
<use xlink:href="#p" x="360" y="200"/>
<use xlink:href="#p" x="360" y="208"/>
<use xlink:href="#p" x="360" y="240"/>
<use xlink:href="#p" x="360" y="248"/>
<use xlink:href="#p" x="360" y="264"/>
<use xlink:href="#p" x="360" y="296"/>
<use xlink:href="#p" x="360" y="304"/>
<use xlink:href="#p" x="360" y="312"/>
<use xlink:href="#p" x="360" y="320"/>
<use xlink:href="#p" x="360" y="344"/>
<use xlink:href="#p" x="360" y="352"/>
<use xlink:href="#p" x="360" y="384"/>
<use xlink:href="#p" x="368" y="32"/>
<use xlink:href="#p" x="368" y="40"/>
<use xlink:href="#p" x="368" y="48"/>
<use xlink:href="#p" x="368" y="56"/>
<use xlink:href="#p" x="368" y="64"/>
<use xlink:href="#p" x="368" y="72"/>
<use xlink:href="#p" x="368" y="80"/>
<use xlink:href="#p" x="368" y="104"/>
<use xlink:href="#p" x="368" y="120"/>
<use xlink:href="#p" x="368" y="128"/>
<use xlink:href="#p" x="368" y="136"/>
<use xlink:href="#p" x="368" y="176"/>
<use xlink:href="#p" x="368" y="192"/>
<use xlink:href="#p" x="368" y="200"/>
<use xlink:href="#p" x="368" y="208"/>
<use xlink:href="#p" x="368" y="224"/>
<use xlink:href="#p" x="368" y="240"/>
<use xlink:href="#p" x="368" y="264"/>
<use xlink:href="#p" x="368" y="272"/>
<use xlink:href="#p" x="368" y="296"/>
<use xlink:href="#p" x="368" y="304"/>
<use xlink:href="#p" x="368" y="320"/>
<use xlink:href="#p" x="368" y="336"/>
<use xlink:href="#p" x="368" y="352"/>
<use xlink:href="#p" x="368" y="368"/>
<use xlink:href="#p" x="368" y="384"/>
<use xlink:href="#p" x="368" y="392"/>
<use xlink:href="#p" x="368" y="408"/>
<use xlink:href="#p" x="376" y="32"/>
<use xlink:href="#p" x="376" y="80"/>
<use xlink:href="#p" x="376" y="104"/>
<use xlink:href="#p" x="376" y="112"/>
<use xlink:href="#p" x="376" y="136"/>
<use xlink:href="#p" x="376" y="144"/>
<use xlink:href="#p" x="376" y="160"/>
<use xlink:href="#p" x="376" y="168"/>
<use xlink:href="#p" x="376" y="192"/>
<use xlink:href="#p" x="376" y="200"/>
<use xlink:href="#p" x="376" y="208"/>
<use xlink:href="#p" x="376" y="240"/>
<use xlink:href="#p" x="376" y="256"/>
<use xlink:href="#p" x="376" y="304"/>
<use xlink:href="#p" x="376" y="312"/>
<use xlink:href="#p" x="376" y="320"/>
<use xlink:href="#p" x="376" y="336"/>
<use xlink:href="#p" x="376" y="344"/>
<use xlink:href="#p" x="376" y="352"/>
<use xlink:href="#p" x="376" y="384"/>
<use xlink:href="#p" x="376" y="400"/>
<use xlink:href="#p" x="376" y="408"/>
<use xlink:href="#p" x="384" y="32"/>
<use xlink:href="#p" x="384" y="48"/>
<use xlink:href="#p" x="384" y="56"/>
<use xlink:href="#p" x="384" y="64"/>
<use xlink:href="#p" x="384" y="80"/>
<use xlink:href="#p" x="384" y="104"/>
<use xlink:href="#p" x="384" y="120"/>
<use xlink:href="#p" x="384" y="128"/>
<use xlink:href="#p" x="384" y="144"/>
<use xlink:href="#p" x="384" y="168"/>
<use xlink:href="#p" x="384" y="176"/>
<use xlink:href="#p" x="384" y="184"/>
<use xlink:href="#p" x="384" y="200"/>
<use xlink:href="#p" x="384" y="208"/>
<use xlink:href="#p" x="384" y="216"/>
<use xlink:href="#p" x="384" y="224"/>
<use xlink:href="#p" x="384" y="232"/>
<use xlink:href="#p" x="384" y="240"/>
<use xlink:href="#p" x="384" y="272"/>
<use xlink:href="#p" x="384" y="288"/>
<use xlink:href="#p" x="384" y="296"/>
<use xlink:href="#p" x="384" y="352"/>
<use xlink:href="#p" x="384" y="360"/>
<use xlink:href="#p" x="384" y="368"/>
<use xlink:href="#p" x="384" y="376"/>
<use xlink:href="#p" x="384" y="384"/>
<use xlink:href="#p" x="392" y="32"/>
<use xlink:href="#p" x="392" y="48"/>
<use xlink:href="#p" x="392" y="56"/>
<use xlink:href="#p" x="392" y="64"/>
<use xlink:href="#p" x="392" y="80"/>
<use xlink:href="#p" x="392" y="120"/>
<use xlink:href="#p" x="392" y="136"/>
<use xlink:href="#p" x="392" y="160"/>
<use xlink:href="#p" x="392" y="168"/>
<use xlink:href="#p" x="392" y="184"/>
<use xlink:href="#p" x="392" y="192"/>
<use xlink:href="#p" x="392" y="216"/>
<use xlink:href="#p" x="392" y="224"/>
<use xlink:href="#p" x="392" y="232"/>
<use xlink:href="#p" x="392" y="240"/>
<use xlink:href="#p" x="392" y="272"/>
<use xlink:href="#p" x="392" y="288"/>
<use xlink:href="#p" x="392" y="296"/>
<use xlink:href="#p" x="392" y="304"/>
<use xlink:href="#p" x="392" y="312"/>
<use xlink:href="#p" x="392" y="320"/>
<use xlink:href="#p" x="392" y="328"/>
<use xlink:href="#p" x="392" y="336"/>
<use xlink:href="#p" x="392" y="344"/>
<use xlink:href="#p" x="392" y="352"/>
<use xlink:href="#p" x="392" y="376"/>
<use xlink:href="#p" x="392" y="384"/>
<use xlink:href="#p" x="392" y="392"/>
<use xlink:href="#p" x="392" y="408"/>
<use xlink:href="#p" x="400" y="32"/>
<use xlink:href="#p" x="400" y="48"/>
<use xlink:href="#p" x="400" y="56"/>
<use xlink:href="#p" x="400" y="64"/>
<use xlink:href="#p" x="400" y="80"/>
<use xlink:href="#p" x="400" y="136"/>
<use xlink:href="#p" x="400" y="152"/>
<use xlink:href="#p" x="400" y="168"/>
<use xlink:href="#p" x="400" y="176"/>
<use xlink:href="#p" x="400" y="192"/>
<use xlink:href="#p" x="400" y="248"/>
<use xlink:href="#p" x="400" y="256"/>
<use xlink:href="#p" x="400" y="272"/>
<use xlink:href="#p" x="400" y="288"/>
<use xlink:href="#p" x="400" y="296"/>
<use xlink:href="#p" x="400" y="328"/>
<use xlink:href="#p" x="400" y="336"/>
<use xlink:href="#p" x="400" y="368"/>
<use xlink:href="#p" x="400" y="384"/>
<use xlink:href="#p" x="400" y="392"/>
<use xlink:href="#p" x="408" y="32"/>
<use xlink:href="#p" x="408" y="80"/>
<use xlink:href="#p" x="408" y="96"/>
<use xlink:href="#p" x="408" y="104"/>
<use xlink:href="#p" x="408" y="128"/>
<use xlink:href="#p" x="408" y="136"/>
<use xlink:href="#p" x="408" y="144"/>
<use xlink:href="#p" x="408" y="152"/>
<use xlink:href="#p" x="408" y="184"/>
<use xlink:href="#p" x="408" y="208"/>
<use xlink:href="#p" x="408" y="216"/>
<use xlink:href="#p" x="408" y="224"/>
<use xlink:href="#p" x="408" y="240"/>
<use xlink:href="#p" x="408" y="280"/>
<use xlink:href="#p" x="408" y="296"/>
<use xlink:href="#p" x="408" y="312"/>
<use xlink:href="#p" x="408" y="336"/>
<use xlink:href="#p" x="408" y="344"/>
<use xlink:href="#p" x="408" y="352"/>
<use xlink:href="#p" x="408" y="360"/>
<use xlink:href="#p" x="408" y="376"/>
<use xlink:href="#p" x="408" y="392"/>
<use xlink:href="#p" x="408" y="400"/>
<use xlink:href="#p" x="416" y="32"/>
<use xlink:href="#p" x="416" y="40"/>
<use xlink:href="#p" x="416" y="48"/>
<use xlink:href="#p" x="416" y="56"/>
<use xlink:href="#p" x="416" y="64"/>
<use xlink:href="#p" x="416" y="72"/>
<use xlink:href="#p" x="416" y="80"/>
<use xlink:href="#p" x="416" y="96"/>
<use xlink:href="#p" x="416" y="112"/>
<use xlink:href="#p" x="416" y="128"/>
<use xlink:href="#p" x="416" y="144"/>
<use xlink:href="#p" x="416" y="160"/>
<use xlink:href="#p" x="416" y="176"/>
<use xlink:href="#p" x="416" y="192"/>
<use xlink:href="#p" x="416" y="208"/>
<use xlink:href="#p" x="416" y="240"/>
<use xlink:href="#p" x="416" y="256"/>
<use xlink:href="#p" x="416" y="272"/>
<use xlink:href="#p" x="416" y="288"/>
<use xlink:href="#p" x="416" y="304"/>
<use xlink:href="#p" x="416" y="312"/>
<use xlink:href="#p" x="416" y="320"/>
<use xlink:href="#p" x="416" y="336"/>
<use xlink:href="#p" x="416" y="344"/>
<use xlink:href="#p" x="416" y="352"/>
<use xlink:href="#p" x="416" y="368"/>
<use xlink:href="#p" x="416" y="376"/>
<use xlink:href="#p" x="416" y="392"/>
<use xlink:href="#p" x="416" y="400"/>
<use xlink:href="#p" x="416" y="408"/>
<use xlink:href="#p" x="416" y="416"/>
</g>
<g></g></svg>